#!OML:ASF F:\VICON\USERDATA\INSTALL\Justin_Nancy\Justin_Nancy.ASF
:FULLY-SPECIFIED
:DEGREES
32
root -12.3766 15.8441 -14.2924 -15.7737 18.6904 -9.90252
lowerback 21.2528 -1.42624 -0.00706674
upperback 4.75923 -1.30813 6.07837
thorax -6.52696 -0.57628 6.9935
lowerneck -11.2032 -5.30346 -9.92433
upperneck 17.3098 -6.5941 6.34704
head 7.72505 -3.22382 3.05026
rclavicle -6.53505e-014 -3.81667e-014
rhumerus -47.6877 19.2693 -97.5408
rradius 111.269
rwrist -11.2647
rhand -11.9331 27.4114
rfingers 7.12502
rthumb 14.1215 -2.0887
lclavicle -6.53505e-014 -3.81667e-014
lhumerus -48.6948 -21.8394 89.6442
lradius 130.236
lwrist 24.2724
lhand -17.8899 5.46105
lfingers 7.12502
lthumb 8.37657 35.275
rfemur -17.6308 8.76204 12.2881
rtibia 37.8439
rfoot -2.183 -3.43774
rtoes -23.0385
lfemur -39.6353 6.39209 -21.2494
ltibia 79.312
lfoot -1.32305 -7.75527
ltoes -7.50063
33
root -12.4017 15.8102 -13.7923 -17.0832 21.3461 -11.2156
lowerback 21.0887 -1.79312 0.239654
upperback 4.99014 -1.71325 6.39737
thorax -6.13624 -0.783045 7.29191
lowerneck -10.9073 -5.82304 -10.0605
upperneck 17.3384 -7.34696 6.51951
head 7.76037 -3.58014 3.05019
rclavicle 3.98563e-014 -7.95139e-015
rhumerus -47.6746 19.0678 -97.224
rradius 111.525
rwrist -11.3557
rhand -12.2385 27.5977
rfingers 7.12502
rthumb 13.8271 -1.92269
lclavicle 3.98563e-014 -7.95139e-015
lhumerus -48.3535 -22.5315 88.1212
lradius 130.9
lwrist 23.5964
lhand -18.1127 5.13342
lfingers 7.12502
lthumb 8.16157 34.9558
rfemur -15.8039 7.4984 13.5052
rtibia 40.4148
rfoot -4.99488 -4.70732
rtoes -24.8812
lfemur -39.2817 5.60377 -20.8331
ltibia 77.1536
lfoot -3.20694 -7.90021
ltoes -6.99196
34
root -12.401 15.7459 -13.3412 -18.1274 22.2401 -12.4265
lowerback 21.2022 -1.7559 0.948012
upperback 5.13957 -1.47934 6.69058
thorax -6.07234 -0.673797 7.1465
lowerneck -10.2273 -6.31987 -10.2996
upperneck 17.0235 -8.09367 6.79909
head 7.62509 -3.93896 3.11236
rclavicle -5.96354e-015 6.04305e-014
rhumerus -47.6324 18.9752 -96.8611
rradius 111.765
rwrist -11.4973
rhand -12.4627 27.4281
rfingers 7.12502
rthumb 13.6111 -2.10692
lclavicle -5.96354e-015 6.04305e-014
lhumerus -48.2611 -22.6379 86.6392
lradius 131.465
lwrist 23.3434
lhand -18.4192 5.20559
lfingers 7.12502
lthumb 7.86575 35.0393
rfemur -15.0414 6.725 14.789
rtibia 43.1731
rfoot -7.30509 -4.3333
rtoes -26.1334
lfemur -39.2771 6.1149 -20.4244
ltibia 74.7829
lfoot -4.71199 -7.72051
ltoes -8.40941
35
root -12.3826 15.6807 -12.8983 -18.8118 23.1206 -13.6283
lowerback 21.0601 -1.8139 1.71113
upperback 5.1211 -1.3622 7.02003
thorax -6.0423 -0.619447 7.03359
lowerneck -9.29337 -6.69983 -10.419
upperneck 16.4439 -8.68046 6.90954
head 7.33498 -4.23596 3.12789
rclavicle -3.2054e-014 -2.70347e-014
rhumerus -47.6264 18.9583 -96.2382
rradius 111.869
rwrist -11.3268
rhand -12.5705 27.6092
rfingers 7.12502
rthumb 13.5072 -1.93273
lclavicle -3.2054e-014 -2.70347e-014
lhumerus -48.5449 -22.1317 85.3863
lradius 131.992
lwrist 23.7185
lhand -18.6386 5.55724
lfingers 7.12502
lthumb 7.65402 35.3987
rfemur -14.6008 5.32044 15.9286
rtibia 46.0116
rfoot -9.37988 -3.15531
rtoes -28.0033
lfemur -39.4731 6.52966 -20.3083
ltibia 72.1352
lfoot -5.55933 -7.30096
ltoes -10.3696
36
root -12.3367 15.6364 -12.4675 -19.3366 24.0399 -14.6179
lowerback 20.9107 -1.89935 2.45116
upperback 5.08843 -1.29504 7.26032
thorax -6.01859 -0.589322 6.84824
lowerneck -9.05857 -7.13794 -10.4713
upperneck 16.3923 -9.29573 6.91523
head 7.3373 -4.53696 3.07612
rclavicle 1.86361e-014 -1.35174e-014
rhumerus -47.5616 18.8296 -95.5812
rradius 111.814
rwrist -10.6732
rhand -12.6585 27.9357
rfingers 7.12502
rthumb 13.4224 -1.6119
lclavicle 1.86361e-014 -1.35174e-014
lhumerus -48.7352 -21.28 84.2162
lradius 132.246
lwrist 24.5348
lhand -18.4918 5.87218
lfingers 7.12502
lthumb 7.79565 35.7085
rfemur -14.2264 3.31033 16.6423
rtibia 48.9551
rfoot -11.1633 -1.71072
rtoes -31.868
lfemur -39.3629 6.64431 -20.5367
ltibia 69.3321
lfoot -5.70596 -6.68304
ltoes -9.03942
37
root -12.2633 15.6204 -12.0653 -19.3171 24.7817 -15.0202
lowerback 20.5521 -1.87753 2.76401
upperback 4.96564 -1.1977 7.45395
thorax -5.97657 -0.541324 6.84407
lowerneck -8.8629 -7.53966 -10.7175
upperneck 16.5042 -9.83205 6.90821
head 7.40285 -4.8119 3.05748
rclavicle -7.07673e-014 -3.85642e-014
rhumerus -47.3691 18.8425 -94.6373
rradius 111.596
rwrist -10.1056
rhand -12.5457 27.737
rfingers 7.12502
rthumb 13.5311 -1.80336
lclavicle -7.07673e-014 -3.85642e-014
lhumerus -49.1804 -20.0543 83.5581
lradius 132.065
lwrist 25.0781
lhand -18.8306 5.79432
lfingers 7.12502
lthumb 7.46863 35.6425
rfemur -14.5359 1.32969 16.5282
rtibia 52.0116
rfoot -12.3572 0.436994
rtoes -33.5018
lfemur -39.1505 6.61437 -21.3787
ltibia 66.3932
lfoot -5.62371 -5.85771
ltoes -6.74556
38
root -12.1776 15.614 -11.6818 -19.1779 24.9353 -15.4809
lowerback 20.2549 -1.73664 3.37761
upperback 4.77785 -0.878489 7.60928
thorax -6.06367 -0.387199 6.57345
lowerneck -8.61126 -7.76742 -10.4591
upperneck 16.5078 -10.1733 6.70834
head 7.36708 -4.9802 2.92145
rclavicle 1.0794e-013 -1.05356e-013
rhumerus -47.0339 18.6006 -93.6443
rradius 111.225
rwrist -9.91691
rhand -11.6599 27.7072
rfingers 7.12502
rthumb 14.3847 -1.77436
lclavicle 1.0794e-013 -1.05356e-013
lhumerus -49.8978 -18.856 83.162
lradius 131.658
lwrist 25.5726
lhand -19.4732 5.16677
lfingers 7.12502
lthumb 6.84835 35.036
rfemur -15.4058 -0.283895 16.5989
rtibia 55.2781
rfoot -12.2917 2.90052
rtoes -33.0629
lfemur -38.8888 6.7794 -21.9627
ltibia 63.4877
lfoot -5.18831 -5.35269
ltoes -5.83311
